<mxfile host="app.diagrams.net" agent="Mozilla/5.0 (Macintosh; Intel Mac OS X 10_15_7) AppleWebKit/605.1.15 (KHTML, like Gecko) Version/18.3 Safari/605.1.15" version="26.0.10">
  <diagram id="GTFS_Generation_Model" name="Page-1">
    <mxGraphModel dx="830" dy="1157" grid="1" gridSize="10" guides="1" tooltips="1" connect="1" arrows="1" fold="1" page="1" pageScale="1" pageWidth="1200" pageHeight="1600" math="0" shadow="0">
      <root>
        <mxCell id="0" />
        <mxCell id="1" parent="0" />
        <mxCell id="6" value="agency.txt" style="shape=rectangle;fillColor=#99FF99;" parent="1" vertex="1">
          <mxGeometry x="600" y="50" width="180" height="40" as="geometry" />
        </mxCell>
        <mxCell id="7" value="stops.txt" style="shape=rectangle;fillColor=#99FF99;" parent="1" vertex="1">
          <mxGeometry x="600" y="105" width="180" height="40" as="geometry" />
        </mxCell>
        <mxCell id="8" value="routes.txt" style="shape=rectangle;fillColor=#99FF99;" parent="1" vertex="1">
          <mxGeometry x="600" y="170" width="180" height="40" as="geometry" />
        </mxCell>
        <mxCell id="9" value="trips.txt" style="shape=rectangle;fillColor=#99FF99;" parent="1" vertex="1">
          <mxGeometry x="600" y="235" width="180" height="40" as="geometry" />
        </mxCell>
        <mxCell id="10" value="stop_times.txt" style="shape=rectangle;fillColor=#99FF99;" parent="1" vertex="1">
          <mxGeometry x="600" y="295" width="180" height="40" as="geometry" />
        </mxCell>
        <mxCell id="11" value="calendar.txt" style="shape=rectangle;fillColor=#99FF99;" parent="1" vertex="1">
          <mxGeometry x="600" y="341" width="180" height="40" as="geometry" />
        </mxCell>
        <mxCell id="12" value="calendar_dates.txt" style="shape=rectangle;fillColor=#99FF99;" parent="1" vertex="1">
          <mxGeometry x="600" y="381" width="180" height="40" as="geometry" />
        </mxCell>
        <mxCell id="15" value="shapes.txt" style="shape=rectangle;fillColor=#99FF99;" parent="1" vertex="1">
          <mxGeometry x="600" y="440" width="180" height="40" as="geometry" />
        </mxCell>
        <mxCell id="16" value="frequencies.txt" style="shape=rectangle;fillColor=#99FF99;" parent="1" vertex="1">
          <mxGeometry x="600" y="500" width="180" height="40" as="geometry" />
        </mxCell>
        <mxCell id="17" value="Trip Updates (GTFS-RT)" style="shape=rectangle;fillColor=#99CCCC;" parent="1" vertex="1">
          <mxGeometry x="600" y="710" width="200" height="50" as="geometry" />
        </mxCell>
        <mxCell id="18" value="Vehicle Positions (GTFS-RT)" style="shape=rectangle;fillColor=#99CCCC;" parent="1" vertex="1">
          <mxGeometry x="600" y="850" width="200" height="50" as="geometry" />
        </mxCell>
        <mxCell id="19" value="Service Alerts (GTFS-RT)" style="shape=rectangle;fillColor=#99CCCC;" parent="1" vertex="1">
          <mxGeometry x="610" y="990" width="200" height="50" as="geometry" />
        </mxCell>
        <mxCell id="wB80EGOq6Rvjqq9OamPr-28" style="edgeStyle=orthogonalEdgeStyle;rounded=0;orthogonalLoop=1;jettySize=auto;html=1;" edge="1" parent="1" source="wB80EGOq6Rvjqq9OamPr-27" target="6">
          <mxGeometry relative="1" as="geometry" />
        </mxCell>
        <mxCell id="wB80EGOq6Rvjqq9OamPr-27" value="user" style="shape=note;whiteSpace=wrap;html=1;backgroundOutline=1;darkOpacity=0.05;" vertex="1" parent="1">
          <mxGeometry x="270" y="45" width="180" height="50" as="geometry" />
        </mxCell>
        <mxCell id="wB80EGOq6Rvjqq9OamPr-41" style="edgeStyle=orthogonalEdgeStyle;rounded=0;orthogonalLoop=1;jettySize=auto;html=1;entryX=0;entryY=0.5;entryDx=0;entryDy=0;" edge="1" parent="1">
          <mxGeometry relative="1" as="geometry">
            <mxPoint x="450" y="124.5" as="sourcePoint" />
            <mxPoint x="600" y="124.5" as="targetPoint" />
          </mxGeometry>
        </mxCell>
        <mxCell id="wB80EGOq6Rvjqq9OamPr-29" value="stop" style="shape=note;whiteSpace=wrap;html=1;backgroundOutline=1;darkOpacity=0.05;" vertex="1" parent="1">
          <mxGeometry x="270" y="100" width="180" height="50" as="geometry" />
        </mxCell>
        <mxCell id="wB80EGOq6Rvjqq9OamPr-30" value="route&lt;div&gt;routeGroup&lt;/div&gt;&lt;div&gt;routeGroupRoute&lt;/div&gt;&lt;div&gt;routeVersion&lt;/div&gt;" style="shape=note;whiteSpace=wrap;html=1;backgroundOutline=1;darkOpacity=0.05;" vertex="1" parent="1">
          <mxGeometry x="270" y="160" width="180" height="60" as="geometry" />
        </mxCell>
        <mxCell id="wB80EGOq6Rvjqq9OamPr-31" value="&lt;div&gt;trip&lt;/div&gt;" style="shape=note;whiteSpace=wrap;html=1;backgroundOutline=1;darkOpacity=0.05;shadow=0;" vertex="1" parent="1">
          <mxGeometry x="270" y="230" width="180" height="50" as="geometry" />
        </mxCell>
        <mxCell id="wB80EGOq6Rvjqq9OamPr-32" value="&lt;div&gt;timePoint&lt;/div&gt;" style="shape=note;whiteSpace=wrap;html=1;backgroundOutline=1;darkOpacity=0.05;shadow=0;" vertex="1" parent="1">
          <mxGeometry x="270" y="290" width="180" height="50" as="geometry" />
        </mxCell>
        <mxCell id="wB80EGOq6Rvjqq9OamPr-33" value="&lt;div&gt;routeCalendar&lt;/div&gt;&lt;div&gt;routeBlockCalendar&lt;/div&gt;" style="shape=note;whiteSpace=wrap;html=1;backgroundOutline=1;darkOpacity=0.05;shadow=0;" vertex="1" parent="1">
          <mxGeometry x="270" y="356" width="180" height="50" as="geometry" />
        </mxCell>
        <mxCell id="wB80EGOq6Rvjqq9OamPr-34" value="&lt;div&gt;routePath&lt;/div&gt;&lt;div&gt;routePathPoint&lt;/div&gt;&lt;div&gt;routePathTrip&lt;/div&gt;" style="shape=note;whiteSpace=wrap;html=1;backgroundOutline=1;darkOpacity=0.05;shadow=0;" vertex="1" parent="1">
          <mxGeometry x="270" y="435" width="180" height="50" as="geometry" />
        </mxCell>
        <mxCell id="wB80EGOq6Rvjqq9OamPr-36" value="&lt;div&gt;headway&lt;div&gt;headwayRoute&lt;/div&gt;&lt;/div&gt;" style="shape=note;whiteSpace=wrap;html=1;backgroundOutline=1;darkOpacity=0.05;shadow=0;" vertex="1" parent="1">
          <mxGeometry x="270" y="495" width="180" height="50" as="geometry" />
        </mxCell>
        <mxCell id="wB80EGOq6Rvjqq9OamPr-37" value="&lt;br&gt;&lt;div&gt;At every stop geofence entry, route + trip + stop is assigned/derived based on time and previous assignment and config. This assignment is written to bus table.&lt;/div&gt;&lt;div&gt;This assignment is used to determine the ETA of the bus for subsequent stops. This ETA is calculated every 60 seconds server side. These ETAs + assignments are populated in TU feed&lt;/div&gt;&lt;div&gt;TU feed has data for current trip and next trip&lt;/div&gt;&lt;div&gt;&lt;br&gt;&lt;/div&gt;" style="shape=note;whiteSpace=wrap;html=1;backgroundOutline=1;darkOpacity=0.05;shadow=0;" vertex="1" parent="1">
          <mxGeometry x="190" y="660" width="340" height="140" as="geometry" />
        </mxCell>
        <mxCell id="wB80EGOq6Rvjqq9OamPr-38" value="VP feed polls bus table for last GPS data (location, speed, heading, etc) and assignment data. Current position + next stop with ETAs are included" style="shape=note;whiteSpace=wrap;html=1;backgroundOutline=1;darkOpacity=0.05;shadow=0;" vertex="1" parent="1">
          <mxGeometry x="190" y="830" width="340" height="100" as="geometry" />
        </mxCell>
        <mxCell id="wB80EGOq6Rvjqq9OamPr-39" value="SA feed is populated from goAlertLog table. A dispatcher will manually create an alert. Alerts can be route specific" style="shape=note;whiteSpace=wrap;html=1;backgroundOutline=1;darkOpacity=0.05;shadow=0;" vertex="1" parent="1">
          <mxGeometry x="190" y="950" width="360" height="80" as="geometry" />
        </mxCell>
        <mxCell id="wB80EGOq6Rvjqq9OamPr-42" style="edgeStyle=orthogonalEdgeStyle;rounded=0;orthogonalLoop=1;jettySize=auto;html=1;entryX=0;entryY=0.5;entryDx=0;entryDy=0;" edge="1" parent="1">
          <mxGeometry relative="1" as="geometry">
            <mxPoint x="450" y="189.5" as="sourcePoint" />
            <mxPoint x="600" y="189.5" as="targetPoint" />
          </mxGeometry>
        </mxCell>
        <mxCell id="wB80EGOq6Rvjqq9OamPr-44" style="edgeStyle=orthogonalEdgeStyle;rounded=0;orthogonalLoop=1;jettySize=auto;html=1;entryX=0;entryY=0.5;entryDx=0;entryDy=0;" edge="1" parent="1">
          <mxGeometry relative="1" as="geometry">
            <mxPoint x="450" y="254.5" as="sourcePoint" />
            <mxPoint x="600" y="254.5" as="targetPoint" />
          </mxGeometry>
        </mxCell>
        <mxCell id="wB80EGOq6Rvjqq9OamPr-45" style="edgeStyle=orthogonalEdgeStyle;rounded=0;orthogonalLoop=1;jettySize=auto;html=1;entryX=0;entryY=0.5;entryDx=0;entryDy=0;" edge="1" parent="1">
          <mxGeometry relative="1" as="geometry">
            <mxPoint x="450" y="320" as="sourcePoint" />
            <mxPoint x="600" y="320" as="targetPoint" />
          </mxGeometry>
        </mxCell>
        <mxCell id="wB80EGOq6Rvjqq9OamPr-46" style="edgeStyle=orthogonalEdgeStyle;rounded=0;orthogonalLoop=1;jettySize=auto;html=1;entryX=0;entryY=0.5;entryDx=0;entryDy=0;" edge="1" parent="1">
          <mxGeometry relative="1" as="geometry">
            <mxPoint x="450" y="390" as="sourcePoint" />
            <mxPoint x="600" y="390" as="targetPoint" />
          </mxGeometry>
        </mxCell>
        <mxCell id="wB80EGOq6Rvjqq9OamPr-47" style="edgeStyle=orthogonalEdgeStyle;rounded=0;orthogonalLoop=1;jettySize=auto;html=1;entryX=0;entryY=0.5;entryDx=0;entryDy=0;" edge="1" parent="1">
          <mxGeometry relative="1" as="geometry">
            <mxPoint x="450" y="470" as="sourcePoint" />
            <mxPoint x="600" y="470" as="targetPoint" />
          </mxGeometry>
        </mxCell>
        <mxCell id="wB80EGOq6Rvjqq9OamPr-48" style="edgeStyle=orthogonalEdgeStyle;rounded=0;orthogonalLoop=1;jettySize=auto;html=1;entryX=0;entryY=0.5;entryDx=0;entryDy=0;" edge="1" parent="1">
          <mxGeometry relative="1" as="geometry">
            <mxPoint x="450" y="520" as="sourcePoint" />
            <mxPoint x="600" y="520" as="targetPoint" />
          </mxGeometry>
        </mxCell>
        <mxCell id="wB80EGOq6Rvjqq9OamPr-49" style="edgeStyle=orthogonalEdgeStyle;rounded=0;orthogonalLoop=1;jettySize=auto;html=1;" edge="1" parent="1" source="wB80EGOq6Rvjqq9OamPr-37">
          <mxGeometry relative="1" as="geometry">
            <mxPoint x="590" y="730" as="targetPoint" />
          </mxGeometry>
        </mxCell>
        <mxCell id="wB80EGOq6Rvjqq9OamPr-52" style="edgeStyle=orthogonalEdgeStyle;rounded=0;orthogonalLoop=1;jettySize=auto;html=1;" edge="1" parent="1">
          <mxGeometry relative="1" as="geometry">
            <mxPoint x="530" y="879.5" as="sourcePoint" />
            <mxPoint x="590" y="879.5" as="targetPoint" />
          </mxGeometry>
        </mxCell>
        <mxCell id="wB80EGOq6Rvjqq9OamPr-53" style="edgeStyle=orthogonalEdgeStyle;rounded=0;orthogonalLoop=1;jettySize=auto;html=1;" edge="1" parent="1">
          <mxGeometry relative="1" as="geometry">
            <mxPoint x="550" y="1014.5" as="sourcePoint" />
            <mxPoint x="610" y="1014.5" as="targetPoint" />
          </mxGeometry>
        </mxCell>
      </root>
    </mxGraphModel>
  </diagram>
</mxfile>
